# xmcd
#
# Track frame offsets:
#	150
#	15112
#	26746
#	42166
#	58386
#	73497
#	88612
#	104061
#	119837
#	132893
#	147932
#	160308
#	174378
#	186804
#	205385
#	219017
#	231624
#	243905
#	258716
#	274302
#
# Disc length: 3846 seconds
#
# Revision: 0
# Processed by: cddbd v1.5.2PL0 Copyright (c) Steve Scherf et al.
# Submitted via: EZCDAudioConverter 4.0.5.1
#
DISCID=380f0414
DTITLE=ERG Music - Nu Country Traxx Volume 244 US
DYEAR=2019
DGENRE=Country
TTITLE0=Kenny Chesney\n - Tip Of My Tongue\n
TTITLE1=Garth Brooks ft. Blake Shelton\n - Dive Bar\n
TTITLE2=Morgan Wallen\n - Chasin' You\n
TTITLE3=Miranda Lambert\n - It All Comes Out In The Wash\n
TTITLE4=Parmalee\n - Be Alright\n
TTITLE5=Billy Currington\n - Details\n
TTITLE6=Kane Brown\n - Homesick\n
TTITLE7=Gabby Barrett\n - I Hope\n
TTITLE8=Drew Baldridge\n - Middle Of Nowhere Kids\n
TTITLE9=Keith Burns ft. Lisa Guererro\n - Everybody Loves A Comeback\n
TTITLE10=Joe Lasher\n - That's Gonna Get You Kissed\n
TTITLE11=Gary Kyle\nGary Kyle\n - American Flags\n
TTITLE12=James Dupre\n - Another Love Song\n
TTITLE13=Jeff Clayborn\n - I Reckon\n
TTITLE14=John King\n - Try Saying Goodbye\n
TTITLE15=Ryan Langdon\n - Lit In The Sticks\n
TTITLE16=Leaving Thomas\n - I Wanna Be It All\n
TTITLE17=Jake Mathews\n - Just Like A Country Song\n
TTITLE18=Alex Runions ft. Erin Hill\n - Heartland\n
TTITLE19=Blake Harlow - Topless
EXTD=
EXTT0=
EXTT1=
EXTT2=
EXTT3=
EXTT4=
EXTT5=
EXTT6=
EXTT7=
EXTT8=
EXTT9=
EXTT10=
EXTT11=
EXTT12=
EXTT13=
EXTT14=
EXTT15=
EXTT16=
EXTT17=
EXTT18=
EXTT19=
PLAYORDER=
